<svg width="404" height="282" viewBox="0 0 404 282" fill="none" xmlns="http://www.w3.org/2000/svg">
<path d="M35.786 2.8122H403.426V3.88592H35.786V2.8122Z" fill="#F0F0F0"/>
<path d="M35.786 90.8575H403.426V91.9312H35.786V90.8575Z" fill="#F0F0F0"/>
<path d="M35.786 178.903H403.426V179.977H35.786V178.903Z" fill="#F0F0F0"/>
<path d="M35.786 46.8349H403.426V47.9086H35.786V46.8349Z" fill="#F0F0F0"/>
<path d="M35.786 134.88H403.426V135.954H35.786V134.88Z" fill="#F0F0F0"/>
<path d="M35.786 222.926H403.426V223.999H35.786V222.926Z" fill="#F0F0F0"/>
<path d="M55.5516 126.29H105.624V258.358H55.5516V126.29Z" fill="#00B1B4"/>
<path d="M241.348 182.124H292.739V258.358H241.348V182.124Z" fill="#00B1B4"/>
<path d="M117.484 162.797H168.874V258.358H117.484V162.797Z" fill="#00B1B4"/>
<path d="M304.598 23.2129H354.671V258.358H304.598V23.2129Z" fill="#00B1B4"/>
<path d="M180.734 67.2356H229.489V258.358H180.734V67.2356Z" fill="#00B1B4"/>
<path d="M276.926 168.702C276.926 172.557 273.092 175.682 268.361 175.682C263.631 175.682 259.796 172.557 259.796 168.702C259.796 164.848 263.631 161.723 268.361 161.723C273.092 161.723 276.926 164.848 276.926 168.702Z" fill="#018183"/>
<path d="M225.536 109.111C225.536 106.739 227.381 104.816 229.657 104.816H300.477C302.753 104.816 304.598 106.739 304.598 109.111V139.175C304.598 141.547 302.753 143.47 300.477 143.47H229.657C227.381 143.47 225.536 141.547 225.536 139.175V109.111Z" fill="#2E3A59" fill-opacity="0.4"/>
<path d="M256.296 124.143H254.81L253.781 121.097H249.246L248.218 124.143H246.802L250.619 113.214H252.479L256.296 124.143ZM253.352 119.849L251.514 114.484L249.669 119.849H253.352Z" fill="white"/>
<path d="M264.584 115.944L261.401 124.143H260.07L256.908 115.944H258.345L260.782 122.469L263.197 115.944H264.584Z" fill="white"/>
<path d="M272.697 123.211C272.697 124.6 272.395 125.621 271.789 126.272C271.183 126.922 270.251 127.248 268.993 127.248C268.575 127.248 268.167 127.216 267.768 127.152C267.373 127.094 266.984 127.008 266.599 126.895V125.486H266.669C266.885 125.574 267.228 125.682 267.697 125.809C268.167 125.941 268.636 126.007 269.106 126.007C269.556 126.007 269.93 125.951 270.225 125.838C270.521 125.726 270.751 125.569 270.916 125.369C271.08 125.178 271.197 124.948 271.268 124.679C271.338 124.41 271.373 124.109 271.373 123.776V123.027C270.974 123.36 270.592 123.61 270.225 123.776C269.864 123.937 269.401 124.018 268.838 124.018C267.899 124.018 267.153 123.666 266.599 122.961C266.049 122.252 265.775 121.253 265.775 119.967C265.775 119.262 265.868 118.655 266.056 118.146C266.249 117.632 266.509 117.19 266.838 116.818C267.143 116.47 267.514 116.201 267.951 116.01C268.387 115.815 268.822 115.717 269.254 115.717C269.709 115.717 270.089 115.766 270.394 115.864C270.704 115.957 271.031 116.101 271.373 116.297L271.458 115.944H272.697V123.211ZM271.373 121.89V117.42C271.021 117.253 270.693 117.136 270.387 117.067C270.087 116.994 269.786 116.957 269.486 116.957C268.758 116.957 268.185 117.212 267.768 117.721C267.35 118.229 267.141 118.968 267.141 119.937C267.141 120.857 267.296 121.554 267.606 122.029C267.915 122.504 268.43 122.741 269.148 122.741C269.533 122.741 269.918 122.665 270.303 122.513C270.693 122.357 271.049 122.149 271.373 121.89Z" fill="white"/>
<path d="M252.388 131.565C252.388 131.98 252.318 132.366 252.177 132.722C252.04 133.075 251.847 133.381 251.597 133.641C251.288 133.964 250.921 134.207 250.499 134.371C250.076 134.53 249.543 134.61 248.899 134.61H247.704V138.101H246.509V128.734H248.947C249.487 128.734 249.943 128.782 250.318 128.878C250.692 128.971 251.024 129.117 251.314 129.319C251.656 129.558 251.919 129.855 252.104 130.212C252.294 130.569 252.388 131.019 252.388 131.565ZM251.145 131.596C251.145 131.273 251.09 130.992 250.982 130.753C250.873 130.514 250.708 130.319 250.487 130.168C250.294 130.038 250.072 129.946 249.823 129.891C249.577 129.832 249.265 129.803 248.887 129.803H247.704V133.546H248.712C249.195 133.546 249.587 133.502 249.889 133.414C250.191 133.322 250.436 133.177 250.626 132.98C250.815 132.779 250.948 132.567 251.024 132.345C251.104 132.122 251.145 131.873 251.145 131.596Z" fill="white"/>
<path d="M259.626 134.591C259.626 135.736 259.344 136.64 258.781 137.302C258.217 137.965 257.463 138.296 256.517 138.296C255.563 138.296 254.805 137.965 254.241 137.302C253.682 136.64 253.402 135.736 253.402 134.591C253.402 133.446 253.682 132.542 254.241 131.879C254.805 131.212 255.563 130.879 256.517 130.879C257.463 130.879 258.217 131.212 258.781 131.879C259.344 132.542 259.626 133.446 259.626 134.591ZM258.455 134.591C258.455 133.681 258.284 133.005 257.942 132.565C257.6 132.12 257.125 131.898 256.517 131.898C255.901 131.898 255.422 132.12 255.08 132.565C254.742 133.005 254.573 133.681 254.573 134.591C254.573 135.472 254.744 136.141 255.086 136.598C255.429 137.051 255.905 137.277 256.517 137.277C257.121 137.277 257.594 137.053 257.936 136.604C258.282 136.151 258.455 135.48 258.455 134.591Z" fill="white"/>
<path d="M262.608 129.897H261.328V128.671H262.608V129.897ZM262.535 138.101H261.4V131.074H262.535V138.101Z" fill="white"/>
<path d="M270.419 138.101H269.284V134.1C269.284 133.777 269.266 133.475 269.23 133.194C269.193 132.909 269.127 132.687 269.03 132.527C268.93 132.351 268.785 132.221 268.596 132.137C268.407 132.049 268.161 132.005 267.859 132.005C267.55 132.005 267.226 132.085 266.888 132.244C266.55 132.403 266.226 132.607 265.916 132.854V138.101H264.781V131.074H265.916V131.854C266.27 131.548 266.636 131.309 267.014 131.137C267.393 130.965 267.781 130.879 268.179 130.879C268.908 130.879 269.463 131.107 269.845 131.565C270.228 132.022 270.419 132.68 270.419 133.54V138.101Z" fill="white"/>
<path d="M276.105 138.038C275.892 138.097 275.658 138.145 275.405 138.183C275.155 138.221 274.932 138.24 274.735 138.24C274.047 138.24 273.524 138.047 273.165 137.661C272.807 137.275 272.628 136.656 272.628 135.805V132.068H271.862V131.074H272.628V129.054H273.763V131.074H276.105V132.068H273.763V135.27C273.763 135.639 273.771 135.929 273.787 136.138C273.803 136.344 273.86 136.537 273.956 136.717C274.045 136.885 274.165 137.009 274.318 137.088C274.475 137.164 274.713 137.202 275.031 137.202C275.216 137.202 275.409 137.174 275.61 137.12C275.811 137.061 275.956 137.013 276.045 136.975H276.105V138.038Z" fill="white"/>
<path d="M5.00077 5.08128C5.00077 5.71601 4.79956 6.23469 4.39714 6.63734C3.99739 7.03719 3.50644 7.23711 2.92426 7.23711C2.62915 7.23711 2.36087 7.18958 2.11941 7.09451C1.87796 6.99944 1.66467 6.85823 1.47956 6.67089C1.24883 6.43881 1.07042 6.13123 0.944332 5.74816C0.820921 5.36509 0.759216 4.90372 0.759216 4.36406C0.759216 3.81043 0.815556 3.3197 0.928235 2.89189C1.0436 2.46408 1.22603 2.0838 1.47553 1.75106C1.71162 1.43509 2.01612 1.18903 2.38904 1.01287C2.76195 0.833919 3.19657 0.744442 3.69289 0.744442C3.85118 0.744442 3.98398 0.751432 4.09129 0.765413C4.19861 0.779394 4.30726 0.804559 4.41726 0.840909V1.64201H4.37702C4.3019 1.60007 4.18788 1.56092 4.03495 1.52457C3.88472 1.48542 3.73045 1.46585 3.57217 1.46585C2.99536 1.46585 2.53525 1.65459 2.19185 2.03207C1.84845 2.40676 1.64858 2.91426 1.59224 3.55458C1.81759 3.41197 2.03893 3.30432 2.25624 3.23162C2.47623 3.15613 2.72976 3.11838 3.01682 3.11838C3.27169 3.11838 3.49571 3.14354 3.68887 3.19387C3.88472 3.24141 4.08459 3.33927 4.28848 3.48747C4.52457 3.65804 4.70164 3.87334 4.81968 4.13338C4.94041 4.39342 5.00077 4.70939 5.00077 5.08128ZM4.18385 5.11483C4.18385 4.85479 4.14629 4.63949 4.07117 4.46892C3.99874 4.29835 3.87801 4.15016 3.70899 4.02433C3.58558 3.93485 3.44876 3.87614 3.29852 3.84817C3.14828 3.82021 2.99133 3.80623 2.82768 3.80623C2.59964 3.80623 2.3877 3.83419 2.19185 3.89012C1.996 3.94604 1.79479 4.03272 1.58821 4.15016C1.58285 4.21167 1.57882 4.27179 1.57614 4.33051C1.57346 4.38643 1.57211 4.45774 1.57211 4.54442C1.57211 4.98621 1.61504 5.33573 1.70089 5.59297C1.78942 5.84742 1.91015 6.04875 2.06307 6.19694C2.18648 6.31997 2.31928 6.41085 2.46147 6.46957C2.60635 6.52549 2.76329 6.55345 2.93231 6.55345C3.32132 6.55345 3.62716 6.43042 3.84984 6.18436C4.07251 5.9355 4.18385 5.57899 4.18385 5.11483Z" fill="black"/>
<path d="M10.1438 3.98239C10.1438 5.10365 9.97475 5.92711 9.63671 6.45279C9.30135 6.97567 8.77954 7.23711 8.07128 7.23711C7.35228 7.23711 6.82644 6.97148 6.49377 6.44021C6.16378 5.90894 5.99879 5.09246 5.99879 3.99078C5.99879 2.8807 6.16646 2.06143 6.50182 1.53296C6.83717 1.00169 7.36033 0.736053 8.07128 0.736053C8.79027 0.736053 9.31477 1.00588 9.64476 1.54554C9.97743 2.0824 10.1438 2.89469 10.1438 3.98239ZM9.08539 5.88657C9.17929 5.66008 9.24233 5.39445 9.27453 5.08967C9.3094 4.78209 9.32684 4.413 9.32684 3.98239C9.32684 3.55737 9.3094 3.18828 9.27453 2.87511C9.24233 2.56194 9.17794 2.29631 9.08136 2.07821C8.98746 1.8629 8.85869 1.70073 8.69503 1.59168C8.53406 1.48263 8.32614 1.4281 8.07128 1.4281C7.81909 1.4281 7.60983 1.48263 7.44349 1.59168C7.27984 1.70073 7.14972 1.8657 7.05314 2.0866C6.96192 2.29351 6.89888 2.56334 6.864 2.89608C6.83181 3.22883 6.81571 3.59372 6.81571 3.99078C6.81571 4.42698 6.83047 4.79188 6.85998 5.08547C6.88949 5.37907 6.95253 5.64191 7.04912 5.87399C7.13765 6.09209 7.2624 6.25846 7.42337 6.3731C7.58702 6.48774 7.80299 6.54506 8.07128 6.54506C8.32346 6.54506 8.53272 6.49054 8.69906 6.38149C8.86539 6.27244 8.99417 6.10747 9.08539 5.88657Z" fill="black"/>
<path d="M14.2445 2.5941C14.2445 3.22044 14.117 3.686 13.8622 3.99078C13.61 4.29556 13.2451 4.44795 12.7676 4.44795C12.2793 4.44795 11.9104 4.29556 11.6609 3.99078C11.4114 3.686 11.2867 3.22184 11.2867 2.59829C11.2867 1.97195 11.4141 1.50639 11.669 1.20161C11.9238 0.896832 12.29 0.744442 12.7676 0.744442C13.2532 0.744442 13.6207 0.89823 13.8702 1.20581C14.1197 1.51338 14.2445 1.97615 14.2445 2.5941ZM17.0252 0.86188L13.8863 7.10709H13.2223L16.3612 0.86188H17.0252ZM18.9569 5.37487C18.9569 6.00121 18.8294 6.46677 18.5746 6.77155C18.3197 7.07633 17.9535 7.22872 17.4759 7.22872C16.9904 7.22872 16.6228 7.07494 16.3733 6.76736C16.1238 6.45978 15.999 5.99702 15.999 5.37907C15.999 4.75273 16.1251 4.28717 16.3773 3.98239C16.6322 3.67761 16.9984 3.52522 17.4759 3.52522C17.9642 3.52522 18.3331 3.67761 18.5826 3.98239C18.8321 4.28717 18.9569 4.75133 18.9569 5.37487ZM13.5282 2.5941C13.5282 2.11316 13.4678 1.77762 13.3471 1.58748C13.229 1.39734 13.0359 1.30227 12.7676 1.30227C12.4939 1.30227 12.2981 1.39734 12.18 1.58748C12.062 1.77762 12.003 2.11456 12.003 2.59829C12.003 3.08203 12.062 3.41896 12.18 3.6091C12.2981 3.79644 12.4939 3.89012 12.7676 3.89012C13.0359 3.89012 13.229 3.79644 13.3471 3.6091C13.4678 3.41896 13.5282 3.08063 13.5282 2.5941ZM18.2406 5.37487C18.2406 4.89394 18.1802 4.5584 18.0595 4.36826C17.9414 4.17812 17.7483 4.08305 17.48 4.08305C17.2063 4.08305 17.0105 4.17812 16.8924 4.36826C16.7744 4.5584 16.7154 4.89533 16.7154 5.37907C16.7154 5.8628 16.7744 6.19974 16.8924 6.38988C17.0105 6.57722 17.2063 6.67089 17.48 6.67089C17.7483 6.67089 17.9414 6.57722 18.0595 6.38988C18.1802 6.19974 18.2406 5.86141 18.2406 5.37487Z" fill="black"/>
<path d="M4.86395 49.1459C4.86395 49.4367 4.81298 49.7149 4.71103 49.9805C4.60908 50.2462 4.46957 50.4699 4.29251 50.6516C4.09934 50.8473 3.86862 50.9983 3.60034 51.1046C3.33474 51.208 3.02621 51.2598 2.67476 51.2598C2.34745 51.2598 2.03222 51.2234 1.72906 51.1507C1.4259 51.0808 1.16969 50.9955 0.960429 50.8949V50.0099H1.01677C1.23676 50.1553 1.49431 50.2797 1.78942 50.3832C2.08454 50.4838 2.37428 50.5342 2.65866 50.5342C2.84914 50.5342 3.03292 50.5062 3.20998 50.4503C3.38973 50.3944 3.54936 50.2965 3.68887 50.1567C3.80691 50.0365 3.89545 49.8925 3.95447 49.7247C4.01617 49.5569 4.04703 49.3626 4.04703 49.1417C4.04703 48.9264 4.01081 48.7446 3.93837 48.5964C3.86862 48.4482 3.7707 48.3294 3.6446 48.2399C3.5051 48.1337 3.33474 48.0596 3.13352 48.0176C2.93499 47.9729 2.71232 47.9505 2.4655 47.9505C2.22941 47.9505 2.00137 47.9673 1.78138 48.0009C1.56407 48.0344 1.37627 48.068 1.21798 48.1015V44.8845H4.82371V45.6185H1.99466V47.2794C2.11002 47.2683 2.22807 47.2599 2.34879 47.2543C2.46952 47.2487 2.57415 47.2459 2.66269 47.2459C2.98731 47.2459 3.27169 47.2753 3.51583 47.334C3.75996 47.3899 3.98398 47.4906 4.18788 47.636C4.4025 47.7897 4.56884 47.9883 4.68688 48.2315C4.80493 48.4748 4.86395 48.7796 4.86395 49.1459Z" fill="black"/>
<path d="M10.1438 48.0051C10.1438 49.1263 9.97475 49.9498 9.63671 50.4755C9.30135 50.9983 8.77954 51.2598 8.07128 51.2598C7.35228 51.2598 6.82644 50.9941 6.49377 50.4629C6.16378 49.9316 5.99879 49.1151 5.99879 48.0134C5.99879 46.9034 6.16646 46.0841 6.50182 45.5556C6.83717 45.0243 7.36033 44.7587 8.07128 44.7587C8.79027 44.7587 9.31477 45.0285 9.64476 45.5682C9.97743 46.1051 10.1438 46.9173 10.1438 48.0051ZM9.08539 49.9092C9.17929 49.6827 9.24233 49.4171 9.27453 49.1123C9.3094 48.8047 9.32684 48.4357 9.32684 48.0051C9.32684 47.58 9.3094 47.2109 9.27453 46.8978C9.24233 46.5846 9.17794 46.319 9.08136 46.1009C8.98746 45.8856 8.85869 45.7234 8.69503 45.6143C8.53406 45.5053 8.32614 45.4508 8.07128 45.4508C7.81909 45.4508 7.60983 45.5053 7.44349 45.6143C7.27984 45.7234 7.14972 45.8884 7.05314 46.1093C6.96192 46.3162 6.89888 46.586 6.864 46.9187C6.83181 47.2515 6.81571 47.6164 6.81571 48.0134C6.81571 48.4496 6.83047 48.8145 6.85998 49.1081C6.88949 49.4017 6.95253 49.6646 7.04912 49.8966C7.13765 50.1147 7.2624 50.2811 7.42337 50.3958C7.58702 50.5104 7.80299 50.5677 8.07128 50.5677C8.32346 50.5677 8.53272 50.5132 8.69906 50.4042C8.86539 50.2951 8.99417 50.1301 9.08539 49.9092Z" fill="black"/>
<path d="M14.2445 46.6168C14.2445 47.2431 14.117 47.7087 13.8622 48.0134C13.61 48.3182 13.2451 48.4706 12.7676 48.4706C12.2793 48.4706 11.9104 48.3182 11.6609 48.0134C11.4114 47.7087 11.2867 47.2445 11.2867 46.621C11.2867 45.9946 11.4141 45.5291 11.669 45.2243C11.9238 44.9195 12.29 44.7671 12.7676 44.7671C13.2532 44.7671 13.6207 44.9209 13.8702 45.2285C14.1197 45.536 14.2445 45.9988 14.2445 46.6168ZM17.0252 44.8845L13.8863 51.1298H13.2223L16.3612 44.8845H17.0252ZM18.9569 49.3975C18.9569 50.0239 18.8294 50.4894 18.5746 50.7942C18.3197 51.099 17.9535 51.2514 17.4759 51.2514C16.9904 51.2514 16.6228 51.0976 16.3733 50.79C16.1238 50.4824 15.999 50.0197 15.999 49.4017C15.999 48.7754 16.1251 48.3098 16.3773 48.0051C16.6322 47.7003 16.9984 47.5479 17.4759 47.5479C17.9642 47.5479 18.3331 47.7003 18.5826 48.0051C18.8321 48.3098 18.9569 48.774 18.9569 49.3975ZM13.5282 46.6168C13.5282 46.1358 13.4678 45.8003 13.3471 45.6101C13.229 45.42 13.0359 45.3249 12.7676 45.3249C12.4939 45.3249 12.2981 45.42 12.18 45.6101C12.062 45.8003 12.003 46.1372 12.003 46.621C12.003 47.1047 12.062 47.4416 12.18 47.6318C12.2981 47.8191 12.4939 47.9128 12.7676 47.9128C13.0359 47.9128 13.229 47.8191 13.3471 47.6318C13.4678 47.4416 13.5282 47.1033 13.5282 46.6168ZM18.2406 49.3975C18.2406 48.9166 18.1802 48.5811 18.0595 48.3909C17.9414 48.2008 17.7483 48.1057 17.48 48.1057C17.2063 48.1057 17.0105 48.2008 16.8924 48.3909C16.7744 48.5811 16.7154 48.918 16.7154 49.4017C16.7154 49.8855 16.7744 50.2224 16.8924 50.4125C17.0105 50.5999 17.2063 50.6936 17.48 50.6936C17.7483 50.6936 17.9414 50.5999 18.0595 50.4125C18.1802 50.2224 18.2406 49.8841 18.2406 49.3975Z" fill="black"/>
<path d="M5.04907 93.395H4.15971V95.1524H3.38705V93.395H0.517761V92.4304L3.41924 88.9072H4.15971V92.724H5.04907V93.395ZM3.38705 92.724V89.9054L1.06506 92.724H3.38705Z" fill="black"/>
<path d="M10.1438 92.0277C10.1438 93.149 9.97475 93.9724 9.63671 94.4981C9.30135 95.021 8.77954 95.2824 8.07128 95.2824C7.35228 95.2824 6.82644 95.0168 6.49377 94.4855C6.16378 93.9543 5.99879 93.1378 5.99879 92.0361C5.99879 90.926 6.16646 90.1068 6.50182 89.5783C6.83717 89.047 7.36033 88.7814 8.07128 88.7814C8.79027 88.7814 9.31477 89.0512 9.64476 89.5909C9.97743 90.1277 10.1438 90.94 10.1438 92.0277ZM9.08539 93.9319C9.17929 93.7054 9.24233 93.4398 9.27453 93.135C9.3094 92.8274 9.32684 92.4583 9.32684 92.0277C9.32684 91.6027 9.3094 91.2336 9.27453 90.9204C9.24233 90.6073 9.17794 90.3416 9.08136 90.1235C8.98746 89.9082 8.85869 89.746 8.69503 89.637C8.53406 89.5279 8.32614 89.4734 8.07128 89.4734C7.81909 89.4734 7.60983 89.5279 7.44349 89.637C7.27984 89.746 7.14972 89.911 7.05314 90.1319C6.96192 90.3388 6.89888 90.6087 6.864 90.9414C6.83181 91.2741 6.81571 91.639 6.81571 92.0361C6.81571 92.4723 6.83047 92.8372 6.85998 93.1308C6.88949 93.4244 6.95253 93.6872 7.04912 93.9193C7.13765 94.1374 7.2624 94.3038 7.42337 94.4184C7.58702 94.5331 7.80299 94.5904 8.07128 94.5904C8.32346 94.5904 8.53272 94.5359 8.69906 94.4268C8.86539 94.3178 8.99417 94.1528 9.08539 93.9319Z" fill="black"/>
<path d="M14.2445 90.6394C14.2445 91.2658 14.117 91.7313 13.8622 92.0361C13.61 92.3409 13.2451 92.4933 12.7676 92.4933C12.2793 92.4933 11.9104 92.3409 11.6609 92.0361C11.4114 91.7313 11.2867 91.2672 11.2867 90.6436C11.2867 90.0173 11.4141 89.5517 11.669 89.2469C11.9238 88.9422 12.29 88.7898 12.7676 88.7898C13.2532 88.7898 13.6207 88.9436 13.8702 89.2511C14.1197 89.5587 14.2445 90.0215 14.2445 90.6394ZM17.0252 88.9072L13.8863 95.1524H13.2223L16.3612 88.9072H17.0252ZM18.9569 93.4202C18.9569 94.0465 18.8294 94.5121 18.5746 94.8169C18.3197 95.1217 17.9535 95.274 17.4759 95.274C16.9904 95.274 16.6228 95.1203 16.3733 94.8127C16.1238 94.5051 15.999 94.0423 15.999 93.4244C15.999 92.798 16.1251 92.3325 16.3773 92.0277C16.6322 91.7229 16.9984 91.5705 17.4759 91.5705C17.9642 91.5705 18.3331 91.7229 18.5826 92.0277C18.8321 92.3325 18.9569 92.7967 18.9569 93.4202ZM13.5282 90.6394C13.5282 90.1585 13.4678 89.8229 13.3471 89.6328C13.229 89.4427 13.0359 89.3476 12.7676 89.3476C12.4939 89.3476 12.2981 89.4427 12.18 89.6328C12.062 89.8229 12.003 90.1599 12.003 90.6436C12.003 91.1273 12.062 91.4643 12.18 91.6544C12.2981 91.8418 12.4939 91.9354 12.7676 91.9354C13.0359 91.9354 13.229 91.8418 13.3471 91.6544C13.4678 91.4643 13.5282 91.126 13.5282 90.6394ZM18.2406 93.4202C18.2406 92.9393 18.1802 92.6037 18.0595 92.4136C17.9414 92.2234 17.7483 92.1284 17.48 92.1284C17.2063 92.1284 17.0105 92.2234 16.8924 92.4136C16.7744 92.6037 16.7154 92.9407 16.7154 93.4244C16.7154 93.9081 16.7744 94.2451 16.8924 94.4352C17.0105 94.6225 17.2063 94.7162 17.48 94.7162C17.7483 94.7162 17.9414 94.6225 18.0595 94.4352C18.1802 94.2451 18.2406 93.9067 18.2406 93.4202Z" fill="black"/>
<path d="M4.91224 183.198H0.855798V182.321C1.1375 182.069 1.41919 181.818 1.70089 181.566C1.98527 181.315 2.24953 181.064 2.49367 180.815C3.00877 180.295 3.36156 179.883 3.55204 179.578C3.74253 179.271 3.83777 178.939 3.83777 178.584C3.83777 178.26 3.73448 178.007 3.5279 177.825C3.324 177.64 3.03828 177.548 2.67073 177.548C2.4266 177.548 2.16234 177.593 1.87796 177.682C1.59358 177.772 1.3159 177.909 1.04494 178.093H1.0047V177.213C1.19518 177.115 1.4487 177.025 1.76528 176.944C2.08454 176.863 2.39306 176.823 2.69086 176.823C3.30522 176.823 3.78679 176.978 4.13556 177.288C4.48433 177.596 4.65871 178.014 4.65871 178.542C4.65871 178.78 4.6292 179.002 4.57018 179.209C4.51384 179.413 4.42933 179.607 4.31665 179.792C4.21202 179.965 4.08861 180.136 3.94642 180.304C3.80691 180.471 3.63655 180.657 3.43534 180.862C3.14828 181.155 2.85183 181.44 2.54598 181.717C2.24014 181.991 1.95442 182.246 1.68882 182.481H4.91224V183.198Z" fill="black"/>
<path d="M10.1438 180.073C10.1438 181.194 9.97475 182.018 9.63671 182.543C9.30135 183.066 8.77954 183.328 8.07128 183.328C7.35228 183.328 6.82644 183.062 6.49377 182.531C6.16378 182 5.99879 181.183 5.99879 180.081C5.99879 178.971 6.16646 178.152 6.50182 177.624C6.83717 177.092 7.36033 176.827 8.07128 176.827C8.79027 176.827 9.31477 177.097 9.64476 177.636C9.97743 178.173 10.1438 178.985 10.1438 180.073ZM9.08539 181.977C9.17929 181.751 9.24233 181.485 9.27453 181.18C9.3094 180.873 9.32684 180.504 9.32684 180.073C9.32684 179.648 9.3094 179.279 9.27453 178.966C9.24233 178.653 9.17794 178.387 9.08136 178.169C8.98746 177.954 8.85869 177.791 8.69503 177.682C8.53406 177.573 8.32614 177.519 8.07128 177.519C7.81909 177.519 7.60983 177.573 7.44349 177.682C7.27984 177.791 7.14972 177.956 7.05314 178.177C6.96192 178.384 6.89888 178.654 6.864 178.987C6.83181 179.319 6.81571 179.684 6.81571 180.081C6.81571 180.518 6.83047 180.883 6.85998 181.176C6.88949 181.47 6.95253 181.733 7.04912 181.965C7.13765 182.183 7.2624 182.349 7.42337 182.464C7.58702 182.578 7.80299 182.636 8.07128 182.636C8.32346 182.636 8.53272 182.581 8.69906 182.472C8.86539 182.363 8.99417 182.198 9.08539 181.977Z" fill="black"/>
<path d="M14.2445 178.685C14.2445 179.311 14.117 179.777 13.8622 180.081C13.61 180.386 13.2451 180.539 12.7676 180.539C12.2793 180.539 11.9104 180.386 11.6609 180.081C11.4114 179.777 11.2867 179.312 11.2867 178.689C11.2867 178.063 11.4141 177.597 11.669 177.292C11.9238 176.987 12.29 176.835 12.7676 176.835C13.2532 176.835 13.6207 176.989 13.8702 177.296C14.1197 177.604 14.2445 178.067 14.2445 178.685ZM17.0252 176.953L13.8863 183.198H13.2223L16.3612 176.953H17.0252ZM18.9569 181.466C18.9569 182.092 18.8294 182.557 18.5746 182.862C18.3197 183.167 17.9535 183.319 17.4759 183.319C16.9904 183.319 16.6228 183.166 16.3733 182.858C16.1238 182.55 15.999 182.088 15.999 181.47C15.999 180.843 16.1251 180.378 16.3773 180.073C16.6322 179.768 16.9984 179.616 17.4759 179.616C17.9642 179.616 18.3331 179.768 18.5826 180.073C18.8321 180.378 18.9569 180.842 18.9569 181.466ZM13.5282 178.685C13.5282 178.204 13.4678 177.868 13.3471 177.678C13.229 177.488 13.0359 177.393 12.7676 177.393C12.4939 177.393 12.2981 177.488 12.18 177.678C12.062 177.868 12.003 178.205 12.003 178.689C12.003 179.173 12.062 179.51 12.18 179.7C12.2981 179.887 12.4939 179.981 12.7676 179.981C13.0359 179.981 13.229 179.887 13.3471 179.7C13.4678 179.51 13.5282 179.171 13.5282 178.685ZM18.2406 181.466C18.2406 180.985 18.1802 180.649 18.0595 180.459C17.9414 180.269 17.7483 180.174 17.48 180.174C17.2063 180.174 17.0105 180.269 16.8924 180.459C16.7744 180.649 16.7154 180.986 16.7154 181.47C16.7154 181.953 16.7744 182.29 16.8924 182.481C17.0105 182.668 17.2063 182.762 17.48 182.762C17.7483 182.762 17.9414 182.668 18.0595 182.481C18.1802 182.29 18.2406 181.952 18.2406 181.466Z" fill="black"/>
<path d="M4.57018 227.22H1.32664V226.583H2.57415V222.397H1.32664V221.827C1.49565 221.827 1.67674 221.813 1.86991 221.785C2.06307 221.754 2.20929 221.711 2.30855 221.655C2.43196 221.585 2.52854 221.497 2.5983 221.39C2.67073 221.281 2.71232 221.136 2.72305 220.954H3.34681V226.583H4.57018V227.22Z" fill="black"/>
<path d="M10.1438 224.096C10.1438 225.217 9.97475 226.04 9.63671 226.566C9.30135 227.089 8.77954 227.35 8.07128 227.35C7.35228 227.35 6.82644 227.085 6.49377 226.554C6.16378 226.022 5.99879 225.206 5.99879 224.104C5.99879 222.994 6.16646 222.175 6.50182 221.646C6.83717 221.115 7.36033 220.849 8.07128 220.849C8.79027 220.849 9.31477 221.119 9.64476 221.659C9.97743 222.196 10.1438 223.008 10.1438 224.096ZM9.08539 226C9.17929 225.773 9.24233 225.508 9.27453 225.203C9.3094 224.895 9.32684 224.526 9.32684 224.096C9.32684 223.671 9.3094 223.302 9.27453 222.988C9.24233 222.675 9.17794 222.41 9.08136 222.192C8.98746 221.976 8.85869 221.814 8.69503 221.705C8.53406 221.596 8.32614 221.541 8.07128 221.541C7.81909 221.541 7.60983 221.596 7.44349 221.705C7.27984 221.814 7.14972 221.979 7.05314 222.2C6.96192 222.407 6.89888 222.677 6.864 223.009C6.83181 223.342 6.81571 223.707 6.81571 224.104C6.81571 224.54 6.83047 224.905 6.85998 225.199C6.88949 225.492 6.95253 225.755 7.04912 225.987C7.13765 226.205 7.2624 226.372 7.42337 226.486C7.58702 226.601 7.80299 226.658 8.07128 226.658C8.32346 226.658 8.53272 226.604 8.69906 226.495C8.86539 226.386 8.99417 226.221 9.08539 226Z" fill="black"/>
<path d="M14.2445 222.707C14.2445 223.334 14.117 223.799 13.8622 224.104C13.61 224.409 13.2451 224.561 12.7676 224.561C12.2793 224.561 11.9104 224.409 11.6609 224.104C11.4114 223.799 11.2867 223.335 11.2867 222.712C11.2867 222.085 11.4141 221.62 11.669 221.315C11.9238 221.01 12.29 220.858 12.7676 220.858C13.2532 220.858 13.6207 221.012 13.8702 221.319C14.1197 221.627 14.2445 222.089 14.2445 222.707ZM17.0252 220.975L13.8863 227.22H13.2223L16.3612 220.975H17.0252ZM18.9569 225.488C18.9569 226.115 18.8294 226.58 18.5746 226.885C18.3197 227.19 17.9535 227.342 17.4759 227.342C16.9904 227.342 16.6228 227.188 16.3733 226.881C16.1238 226.573 15.999 226.11 15.999 225.492C15.999 224.866 16.1251 224.4 16.3773 224.096C16.6322 223.791 16.9984 223.639 17.4759 223.639C17.9642 223.639 18.3331 223.791 18.5826 224.096C18.8321 224.4 18.9569 224.865 18.9569 225.488ZM13.5282 222.707C13.5282 222.226 13.4678 221.891 13.3471 221.701C13.229 221.511 13.0359 221.416 12.7676 221.416C12.4939 221.416 12.2981 221.511 12.18 221.701C12.062 221.891 12.003 222.228 12.003 222.712C12.003 223.195 12.062 223.532 12.18 223.722C12.2981 223.91 12.4939 224.003 12.7676 224.003C13.0359 224.003 13.229 223.91 13.3471 223.722C13.4678 223.532 13.5282 223.194 13.5282 222.707ZM18.2406 225.488C18.2406 225.007 18.1802 224.672 18.0595 224.482C17.9414 224.291 17.7483 224.196 17.48 224.196C17.2063 224.196 17.0105 224.291 16.8924 224.482C16.7744 224.672 16.7154 225.009 16.7154 225.492C16.7154 225.976 16.7744 226.313 16.8924 226.503C17.0105 226.691 17.2063 226.784 17.48 226.784C17.7483 226.784 17.9414 226.691 18.0595 226.503C18.1802 226.313 18.2406 225.975 18.2406 225.488Z" fill="black"/>
<path d="M4.38506 136.168C4.51384 136.288 4.61981 136.439 4.70298 136.621C4.78615 136.803 4.82773 137.037 4.82773 137.325C4.82773 137.611 4.7781 137.872 4.67883 138.11C4.57957 138.347 4.44006 138.554 4.26031 138.73C4.0591 138.926 3.82167 139.072 3.54802 139.167C3.27705 139.259 2.97926 139.305 2.65464 139.305C2.32197 139.305 1.99466 139.263 1.67272 139.179C1.35078 139.098 1.08652 139.009 0.879944 138.911V138.034H0.940307C1.16835 138.191 1.43663 138.321 1.74516 138.424C2.05368 138.528 2.35148 138.579 2.63854 138.579C2.80756 138.579 2.98731 138.55 3.17779 138.491C3.36827 138.433 3.52253 138.346 3.64058 138.231C3.76399 138.108 3.8552 137.973 3.91423 137.825C3.97593 137.676 4.00678 137.489 4.00678 137.263C4.00678 137.039 3.97191 136.854 3.90215 136.709C3.83508 136.561 3.74118 136.445 3.62046 136.361C3.49973 136.274 3.35352 136.215 3.18181 136.185C3.01011 136.151 2.825 136.134 2.62647 136.134H2.26429V135.438H2.54598C2.95377 135.438 3.2784 135.35 3.51985 135.174C3.76399 134.995 3.88606 134.735 3.88606 134.394C3.88606 134.243 3.8552 134.111 3.7935 133.999C3.73179 133.885 3.64594 133.791 3.53595 133.718C3.42059 133.646 3.29718 133.595 3.16572 133.567C3.03426 133.539 2.88536 133.525 2.71903 133.525C2.46416 133.525 2.19319 133.573 1.90613 133.668C1.61906 133.763 1.3481 133.897 1.09323 134.071H1.05299V133.194C1.24347 133.096 1.497 133.007 1.81357 132.926C2.13283 132.842 2.44135 132.8 2.73915 132.8C3.03158 132.8 3.28913 132.828 3.5118 132.884C3.73448 132.94 3.93569 133.029 4.11544 133.152C4.3086 133.286 4.45482 133.449 4.55408 133.639C4.65335 133.829 4.70298 134.051 4.70298 134.306C4.70298 134.652 4.58494 134.956 4.34885 135.216C4.11544 135.473 3.83911 135.635 3.51985 135.702V135.761C3.64863 135.783 3.79618 135.831 3.96252 135.904C4.12885 135.973 4.2697 136.062 4.38506 136.168Z" fill="black"/>
<path d="M10.1438 136.05C10.1438 137.172 9.97475 137.995 9.63671 138.521C9.30135 139.044 8.77954 139.305 8.07128 139.305C7.35228 139.305 6.82644 139.039 6.49377 138.508C6.16378 137.977 5.99879 137.16 5.99879 136.059C5.99879 134.949 6.16646 134.129 6.50182 133.601C6.83717 133.07 7.36033 132.804 8.07128 132.804C8.79027 132.804 9.31477 133.074 9.64476 133.614C9.97743 134.15 10.1438 134.963 10.1438 136.05ZM9.08539 137.955C9.17929 137.728 9.24233 137.462 9.27453 137.158C9.3094 136.85 9.32684 136.481 9.32684 136.05C9.32684 135.625 9.3094 135.256 9.27453 134.943C9.24233 134.63 9.17794 134.364 9.08136 134.146C8.98746 133.931 8.85869 133.769 8.69503 133.66C8.53406 133.551 8.32614 133.496 8.07128 133.496C7.81909 133.496 7.60983 133.551 7.44349 133.66C7.27984 133.769 7.14972 133.934 7.05314 134.155C6.96192 134.361 6.89888 134.631 6.864 134.964C6.83181 135.297 6.81571 135.662 6.81571 136.059C6.81571 136.495 6.83047 136.86 6.85998 137.153C6.88949 137.447 6.95253 137.71 7.04912 137.942C7.13765 138.16 7.2624 138.326 7.42337 138.441C7.58702 138.556 7.80299 138.613 8.07128 138.613C8.32346 138.613 8.53272 138.559 8.69906 138.449C8.86539 138.34 8.99417 138.175 9.08539 137.955Z" fill="black"/>
<path d="M14.2445 134.662C14.2445 135.288 14.117 135.754 13.8622 136.059C13.61 136.364 13.2451 136.516 12.7676 136.516C12.2793 136.516 11.9104 136.364 11.6609 136.059C11.4114 135.754 11.2867 135.29 11.2867 134.666C11.2867 134.04 11.4141 133.574 11.669 133.27C11.9238 132.965 12.29 132.812 12.7676 132.812C13.2532 132.812 13.6207 132.966 13.8702 133.274C14.1197 133.581 14.2445 134.044 14.2445 134.662ZM17.0252 132.93L13.8863 139.175H13.2223L16.3612 132.93H17.0252ZM18.9569 137.443C18.9569 138.069 18.8294 138.535 18.5746 138.84C18.3197 139.144 17.9535 139.297 17.4759 139.297C16.9904 139.297 16.6228 139.143 16.3733 138.835C16.1238 138.528 15.999 138.065 15.999 137.447C15.999 136.821 16.1251 136.355 16.3773 136.05C16.6322 135.746 16.9984 135.593 17.4759 135.593C17.9642 135.593 18.3331 135.746 18.5826 136.05C18.8321 136.355 18.9569 136.819 18.9569 137.443ZM13.5282 134.662C13.5282 134.181 13.4678 133.846 13.3471 133.655C13.229 133.465 13.0359 133.37 12.7676 133.37C12.4939 133.37 12.2981 133.465 12.18 133.655C12.062 133.846 12.003 134.183 12.003 134.666C12.003 135.15 12.062 135.487 12.18 135.677C12.2981 135.864 12.4939 135.958 12.7676 135.958C13.0359 135.958 13.229 135.864 13.3471 135.677C13.4678 135.487 13.5282 135.149 13.5282 134.662ZM18.2406 137.443C18.2406 136.962 18.1802 136.626 18.0595 136.436C17.9414 136.246 17.7483 136.151 17.48 136.151C17.2063 136.151 17.0105 136.246 16.8924 136.436C16.7744 136.626 16.7154 136.963 16.7154 137.447C16.7154 137.931 16.7744 138.268 16.8924 138.458C17.0105 138.645 17.2063 138.739 17.48 138.739C17.7483 138.739 17.9414 138.645 18.0595 138.458C18.1802 138.268 18.2406 137.929 18.2406 137.443Z" fill="black"/>
<path d="M66.8938 280.51C66.7647 280.569 66.6473 280.624 66.5416 280.675C66.4384 280.727 66.3022 280.781 66.1332 280.837C65.99 280.883 65.8339 280.922 65.6649 280.954C65.4982 280.989 65.3139 281.006 65.112 281.006C64.7317 281.006 64.3855 280.951 64.0733 280.841C63.7634 280.728 63.4934 280.553 63.2634 280.316C63.038 280.083 62.862 279.788 62.7352 279.431C62.6084 279.072 62.5451 278.654 62.5451 278.18C62.5451 277.73 62.6061 277.327 62.7282 276.972C62.8502 276.618 63.0263 276.318 63.2563 276.073C63.4794 275.836 63.7481 275.655 64.0627 275.53C64.3796 275.405 64.7306 275.343 65.1155 275.343C65.3972 275.343 65.6778 275.378 65.9571 275.449C66.2388 275.52 66.551 275.645 66.8938 275.824V276.686H66.8409C66.5522 276.434 66.2658 276.251 65.9818 276.136C65.6977 276.021 65.3937 275.963 65.0698 275.963C64.8045 275.963 64.5651 276.008 64.3514 276.099C64.1402 276.187 63.9512 276.325 63.7845 276.514C63.6226 276.697 63.4958 276.93 63.4042 277.211C63.315 277.49 63.2704 277.813 63.2704 278.18C63.2704 278.564 63.3197 278.894 63.4183 279.171C63.5193 279.447 63.6484 279.672 63.8057 279.846C63.97 280.027 64.1613 280.162 64.3796 280.25C64.6003 280.335 64.8327 280.378 65.0768 280.378C65.4125 280.378 65.7271 280.318 66.0205 280.198C66.3139 280.078 66.5886 279.899 66.8445 279.659H66.8938V280.51Z" fill="#2E3A59"/>
<path d="M68.4959 280.907H67.8339V275.196H68.4959V280.907Z" fill="#2E3A59"/>
<path d="M72.8622 280.907H72.2038V280.47C72.1451 280.511 72.0653 280.57 71.9643 280.646C71.8657 280.719 71.7695 280.778 71.6756 280.822C71.5652 280.878 71.4385 280.925 71.2953 280.962C71.1521 281.001 70.9842 281.02 70.7918 281.02C70.4373 281.02 70.1368 280.898 69.8903 280.653C69.6438 280.409 69.5206 280.097 69.5206 279.717C69.5206 279.407 69.584 279.156 69.7107 278.965C69.8399 278.772 70.0229 278.62 70.26 278.51C70.4995 278.4 70.7871 278.325 71.1227 278.286C71.4584 278.247 71.8188 278.218 72.2038 278.198V278.092C72.2038 277.935 72.1768 277.805 72.1228 277.703C72.0711 277.6 71.996 277.519 71.8974 277.46C71.8035 277.404 71.6908 277.366 71.5594 277.347C71.4279 277.327 71.2906 277.317 71.1474 277.317C70.9737 277.317 70.78 277.342 70.5664 277.391C70.3528 277.437 70.1321 277.506 69.9044 277.596H69.8692V276.895C69.9983 276.859 70.1849 276.818 70.4291 276.774C70.6732 276.73 70.9138 276.708 71.1509 276.708C71.4279 276.708 71.6685 276.733 71.8728 276.782C72.0793 276.828 72.2578 276.909 72.408 277.024C72.5559 277.136 72.6686 277.282 72.746 277.46C72.8235 277.639 72.8622 277.861 72.8622 278.125V280.907ZM72.2038 279.897V278.756C72.0019 278.768 71.7636 278.787 71.489 278.811C71.2166 278.835 71.0007 278.871 70.841 278.917C70.6509 278.974 70.4971 279.062 70.3798 279.182C70.2624 279.299 70.2037 279.462 70.2037 279.67C70.2037 279.905 70.2718 280.082 70.4079 280.202C70.5441 280.319 70.7518 280.378 71.0312 280.378C71.2636 280.378 71.476 280.332 71.6685 280.239C71.861 280.143 72.0394 280.029 72.2038 279.897Z" fill="#2E3A59"/>
<path d="M76.9468 279.725C76.9468 280.099 76.7978 280.406 76.4996 280.646C76.2039 280.886 75.7989 281.006 75.2848 281.006C74.9937 281.006 74.7261 280.97 74.482 280.899C74.2402 280.826 74.0371 280.746 73.8728 280.661V279.886H73.908C74.117 280.05 74.3494 280.181 74.6052 280.279C74.8611 280.374 75.1064 280.422 75.3412 280.422C75.6323 280.422 75.86 280.373 76.0243 280.275C76.1886 280.177 76.2708 280.023 76.2708 279.813C76.2708 279.651 76.2262 279.529 76.137 279.446C76.0478 279.363 75.8764 279.292 75.6229 279.233C75.529 279.211 75.4057 279.185 75.2531 279.156C75.1029 279.127 74.9656 279.095 74.8412 279.061C74.4961 278.965 74.2508 278.826 74.1052 278.642C73.962 278.456 73.8904 278.229 73.8904 277.96C73.8904 277.791 73.9233 277.632 73.989 277.483C74.0571 277.333 74.1592 277.2 74.2954 277.082C74.4268 276.967 74.5935 276.877 74.7954 276.811C74.9996 276.742 75.2273 276.708 75.4785 276.708C75.7132 276.708 75.9503 276.739 76.1898 276.8C76.4316 276.859 76.6323 276.931 76.7919 277.016V277.754H76.7567C76.5877 277.624 76.3823 277.516 76.1405 277.427C75.8987 277.337 75.6616 277.292 75.4292 277.292C75.1874 277.292 74.9832 277.341 74.8165 277.438C74.6498 277.534 74.5665 277.677 74.5665 277.868C74.5665 278.037 74.617 278.164 74.7179 278.25C74.8165 278.335 74.9761 278.405 75.1968 278.459C75.3189 278.488 75.455 278.517 75.6053 278.547C75.7578 278.576 75.8846 278.603 75.9855 278.628C76.2931 278.701 76.5302 278.827 76.6968 279.006C76.8635 279.187 76.9468 279.426 76.9468 279.725Z" fill="#2E3A59"/>
<path d="M80.7075 279.725C80.7075 280.099 80.5584 280.406 80.2603 280.646C79.9645 280.886 79.5596 281.006 79.0455 281.006C78.7544 281.006 78.4868 280.97 78.2426 280.899C78.0009 280.826 77.7978 280.746 77.6335 280.661V279.886H77.6687C77.8776 280.05 78.11 280.181 78.3659 280.279C78.6218 280.374 78.8671 280.422 79.1018 280.422C79.3929 280.422 79.6206 280.373 79.7849 280.275C79.9493 280.177 80.0314 280.023 80.0314 279.813C80.0314 279.651 79.9868 279.529 79.8976 279.446C79.8084 279.363 79.637 279.292 79.3835 279.233C79.2896 279.211 79.1664 279.185 79.0138 279.156C78.8636 279.127 78.7262 279.095 78.6018 279.061C78.2567 278.965 78.0114 278.826 77.8659 278.642C77.7227 278.456 77.6511 278.229 77.6511 277.96C77.6511 277.791 77.6839 277.632 77.7497 277.483C77.8178 277.333 77.9199 277.2 78.056 277.082C78.1875 276.967 78.3542 276.877 78.556 276.811C78.7603 276.742 78.988 276.708 79.2392 276.708C79.4739 276.708 79.711 276.739 79.9504 276.8C80.1922 276.859 80.3929 276.931 80.5526 277.016V277.754H80.5174C80.3483 277.624 80.1429 277.516 79.9011 277.427C79.6594 277.337 79.4223 277.292 79.1899 277.292C78.9481 277.292 78.7438 277.341 78.5772 277.438C78.4105 277.534 78.3272 277.677 78.3272 277.868C78.3272 278.037 78.3776 278.164 78.4786 278.25C78.5772 278.335 78.7368 278.405 78.9575 278.459C79.0795 278.488 79.2157 278.517 79.3659 278.547C79.5185 278.576 79.6453 278.603 79.7462 278.628C80.0537 278.701 80.2908 278.827 80.4575 279.006C80.6242 279.187 80.7075 279.426 80.7075 279.725Z" fill="#2E3A59"/>
<path d="M88.3802 280.907H87.6373L87.1232 279.384H84.8555L84.3414 280.907H83.6336L85.5421 275.442H86.4717L88.3802 280.907ZM86.9084 278.76L85.9893 276.077L85.0668 278.76H86.9084Z" fill="#2E3A59"/>
<path d="M115.314 280.51C115.184 280.569 115.067 280.624 114.961 280.675C114.858 280.727 114.722 280.781 114.553 280.837C114.41 280.883 114.254 280.922 114.085 280.954C113.918 280.989 113.734 281.006 113.532 281.006C113.151 281.006 112.805 280.951 112.493 280.841C112.183 280.728 111.913 280.553 111.683 280.316C111.458 280.083 111.282 279.788 111.155 279.431C111.028 279.072 110.965 278.654 110.965 278.18C110.965 277.73 111.026 277.327 111.148 276.972C111.27 276.618 111.446 276.318 111.676 276.073C111.899 275.836 112.168 275.655 112.482 275.53C112.799 275.405 113.15 275.343 113.535 275.343C113.817 275.343 114.098 275.378 114.377 275.449C114.659 275.52 114.971 275.645 115.314 275.824V276.686H115.261C114.972 276.434 114.686 276.251 114.402 276.136C114.117 276.021 113.813 275.963 113.49 275.963C113.224 275.963 112.985 276.008 112.771 276.099C112.56 276.187 112.371 276.325 112.204 276.514C112.042 276.697 111.916 276.93 111.824 277.211C111.735 277.49 111.69 277.813 111.69 278.18C111.69 278.564 111.739 278.894 111.838 279.171C111.939 279.447 112.068 279.672 112.225 279.846C112.39 280.027 112.581 280.162 112.799 280.25C113.02 280.335 113.252 280.378 113.497 280.378C113.832 280.378 114.147 280.318 114.44 280.198C114.734 280.078 115.008 279.899 115.264 279.659H115.314V280.51Z" fill="#2E3A59"/>
<path d="M116.916 280.907H116.254V275.196H116.916V280.907Z" fill="#2E3A59"/>
<path d="M121.282 280.907H120.624V280.47C120.565 280.511 120.485 280.57 120.384 280.646C120.285 280.719 120.189 280.778 120.095 280.822C119.985 280.878 119.858 280.925 119.715 280.962C119.572 281.001 119.404 281.02 119.212 281.02C118.857 281.02 118.557 280.898 118.31 280.653C118.064 280.409 117.94 280.097 117.94 279.717C117.94 279.407 118.004 279.156 118.131 278.965C118.26 278.772 118.443 278.62 118.68 278.51C118.919 278.4 119.207 278.325 119.543 278.286C119.878 278.247 120.239 278.218 120.624 278.198V278.092C120.624 277.935 120.597 277.805 120.543 277.703C120.491 277.6 120.416 277.519 120.317 277.46C120.223 277.404 120.111 277.366 119.979 277.347C119.848 277.327 119.71 277.317 119.567 277.317C119.393 277.317 119.2 277.342 118.986 277.391C118.773 277.437 118.552 277.506 118.324 277.596H118.289V276.895C118.418 276.859 118.605 276.818 118.849 276.774C119.093 276.73 119.334 276.708 119.571 276.708C119.848 276.708 120.088 276.733 120.293 276.782C120.499 276.828 120.678 276.909 120.828 277.024C120.976 277.136 121.088 277.282 121.166 277.46C121.243 277.639 121.282 277.861 121.282 278.125V280.907ZM120.624 279.897V278.756C120.422 278.768 120.183 278.787 119.909 278.811C119.636 278.835 119.42 278.871 119.261 278.917C119.071 278.974 118.917 279.062 118.8 279.182C118.682 279.299 118.623 279.462 118.623 279.67C118.623 279.905 118.692 280.082 118.828 280.202C118.964 280.319 119.172 280.378 119.451 280.378C119.683 280.378 119.896 280.332 120.088 280.239C120.281 280.143 120.459 280.029 120.624 279.897Z" fill="#2E3A59"/>
<path d="M125.367 279.725C125.367 280.099 125.218 280.406 124.919 280.646C124.624 280.886 124.219 281.006 123.705 281.006C123.413 281.006 123.146 280.97 122.902 280.899C122.66 280.826 122.457 280.746 122.293 280.661V279.886H122.328C122.537 280.05 122.769 280.181 123.025 280.279C123.281 280.374 123.526 280.422 123.761 280.422C124.052 280.422 124.28 280.373 124.444 280.275C124.608 280.177 124.691 280.023 124.691 279.813C124.691 279.651 124.646 279.529 124.557 279.446C124.468 279.363 124.296 279.292 124.043 279.233C123.949 279.211 123.825 279.185 123.673 279.156C123.523 279.127 123.385 279.095 123.261 279.061C122.916 278.965 122.671 278.826 122.525 278.642C122.382 278.456 122.31 278.229 122.31 277.96C122.31 277.791 122.343 277.632 122.409 277.483C122.477 277.333 122.579 277.2 122.715 277.082C122.847 276.967 123.013 276.877 123.215 276.811C123.419 276.742 123.647 276.708 123.898 276.708C124.133 276.708 124.37 276.739 124.61 276.8C124.851 276.859 125.052 276.931 125.212 277.016V277.754H125.176C125.007 277.624 124.802 277.516 124.56 277.427C124.318 277.337 124.081 277.292 123.849 277.292C123.607 277.292 123.403 277.341 123.236 277.438C123.07 277.534 122.986 277.677 122.986 277.868C122.986 278.037 123.037 278.164 123.138 278.25C123.236 278.335 123.396 278.405 123.617 278.459C123.739 278.488 123.875 278.517 124.025 278.547C124.178 278.576 124.304 278.603 124.405 278.628C124.713 278.701 124.95 278.827 125.117 279.006C125.283 279.187 125.367 279.426 125.367 279.725Z" fill="#2E3A59"/>
<path d="M129.127 279.725C129.127 280.099 128.978 280.406 128.68 280.646C128.384 280.886 127.979 281.006 127.465 281.006C127.174 281.006 126.907 280.97 126.662 280.899C126.421 280.826 126.218 280.746 126.053 280.661V279.886H126.088C126.297 280.05 126.53 280.181 126.786 280.279C127.042 280.374 127.287 280.422 127.522 280.422C127.813 280.422 128.04 280.373 128.205 280.275C128.369 280.177 128.451 280.023 128.451 279.813C128.451 279.651 128.407 279.529 128.317 279.446C128.228 279.363 128.057 279.292 127.803 279.233C127.709 279.211 127.586 279.185 127.434 279.156C127.283 279.127 127.146 279.095 127.022 279.061C126.676 278.965 126.431 278.826 126.286 278.642C126.142 278.456 126.071 278.229 126.071 277.96C126.071 277.791 126.104 277.632 126.169 277.483C126.238 277.333 126.34 277.2 126.476 277.082C126.607 276.967 126.774 276.877 126.976 276.811C127.18 276.742 127.408 276.708 127.659 276.708C127.894 276.708 128.131 276.739 128.37 276.8C128.612 276.859 128.813 276.931 128.972 277.016V277.754H128.937C128.768 277.624 128.563 277.516 128.321 277.427C128.079 277.337 127.842 277.292 127.61 277.292C127.368 277.292 127.164 277.341 126.997 277.438C126.83 277.534 126.747 277.677 126.747 277.868C126.747 278.037 126.797 278.164 126.898 278.25C126.997 278.335 127.157 278.405 127.377 278.459C127.499 278.488 127.635 278.517 127.786 278.547C127.938 278.576 128.065 278.603 128.166 278.628C128.473 278.701 128.711 278.827 128.877 279.006C129.044 279.187 129.127 279.426 129.127 279.725Z" fill="#2E3A59"/>
<path d="M136.62 279.226C136.62 279.497 136.571 279.737 136.473 279.945C136.374 280.153 136.241 280.324 136.075 280.459C135.877 280.62 135.66 280.735 135.423 280.804C135.188 280.872 134.889 280.907 134.525 280.907H132.666V275.442H134.219C134.602 275.442 134.888 275.457 135.078 275.486C135.268 275.515 135.45 275.577 135.624 275.67C135.816 275.775 135.956 275.911 136.043 276.077C136.13 276.241 136.173 276.438 136.173 276.668C136.173 276.927 136.11 277.149 135.983 277.332C135.856 277.513 135.687 277.659 135.476 277.769V277.798C135.83 277.874 136.11 278.037 136.314 278.286C136.518 278.533 136.62 278.846 136.62 279.226ZM135.448 276.763C135.448 276.631 135.427 276.52 135.384 276.429C135.342 276.339 135.274 276.265 135.18 276.209C135.07 276.143 134.936 276.103 134.779 276.088C134.622 276.071 134.427 276.062 134.194 276.062H133.363V277.64H134.265C134.483 277.64 134.657 277.629 134.786 277.607C134.915 277.583 135.035 277.534 135.145 277.46C135.255 277.387 135.333 277.293 135.377 277.178C135.424 277.06 135.448 276.922 135.448 276.763ZM135.895 279.255C135.895 279.035 135.863 278.86 135.8 278.73C135.737 278.601 135.622 278.491 135.455 278.4C135.342 278.339 135.205 278.3 135.043 278.283C134.883 278.263 134.688 278.253 134.458 278.253H133.363V280.286H134.286C134.591 280.286 134.841 280.27 135.036 280.239C135.231 280.204 135.39 280.143 135.515 280.055C135.646 279.96 135.742 279.851 135.803 279.729C135.865 279.606 135.895 279.448 135.895 279.255Z" fill="#2E3A59"/>
<path d="M163.733 280.51C163.604 280.569 163.487 280.624 163.381 280.675C163.278 280.727 163.142 280.781 162.973 280.837C162.829 280.883 162.673 280.922 162.504 280.954C162.338 280.989 162.153 281.006 161.952 281.006C161.571 281.006 161.225 280.951 160.913 280.841C160.603 280.728 160.333 280.553 160.103 280.316C159.878 280.083 159.701 279.788 159.575 279.431C159.448 279.072 159.385 278.654 159.385 278.18C159.385 277.73 159.446 277.327 159.568 276.972C159.69 276.618 159.866 276.318 160.096 276.073C160.319 275.836 160.588 275.655 160.902 275.53C161.219 275.405 161.57 275.343 161.955 275.343C162.237 275.343 162.517 275.378 162.797 275.449C163.078 275.52 163.391 275.645 163.733 275.824V276.686H163.68C163.392 276.434 163.105 276.251 162.821 276.136C162.537 276.021 162.233 275.963 161.909 275.963C161.644 275.963 161.405 276.008 161.191 276.099C160.98 276.187 160.791 276.325 160.624 276.514C160.462 276.697 160.335 276.93 160.244 277.211C160.155 277.49 160.11 277.813 160.11 278.18C160.11 278.564 160.159 278.894 160.258 279.171C160.359 279.447 160.488 279.672 160.645 279.846C160.809 280.027 161.001 280.162 161.219 280.25C161.44 280.335 161.672 280.378 161.916 280.378C162.252 280.378 162.567 280.318 162.86 280.198C163.153 280.078 163.428 279.899 163.684 279.659H163.733V280.51Z" fill="#2E3A59"/>
<path d="M165.335 280.907H164.673V275.196H165.335V280.907Z" fill="#2E3A59"/>
<path d="M169.702 280.907H169.043V280.47C168.985 280.511 168.905 280.57 168.804 280.646C168.705 280.719 168.609 280.778 168.515 280.822C168.405 280.878 168.278 280.925 168.135 280.962C167.992 281.001 167.824 281.02 167.631 281.02C167.277 281.02 166.976 280.898 166.73 280.653C166.483 280.409 166.36 280.097 166.36 279.717C166.36 279.407 166.423 279.156 166.55 278.965C166.679 278.772 166.862 278.62 167.1 278.51C167.339 278.4 167.627 278.325 167.962 278.286C168.298 278.247 168.658 278.218 169.043 278.198V278.092C169.043 277.935 169.016 277.805 168.962 277.703C168.911 277.6 168.836 277.519 168.737 277.46C168.643 277.404 168.53 277.366 168.399 277.347C168.267 277.327 168.13 277.317 167.987 277.317C167.813 277.317 167.62 277.342 167.406 277.391C167.192 277.437 166.972 277.506 166.744 277.596H166.709V276.895C166.838 276.859 167.024 276.818 167.269 276.774C167.513 276.73 167.753 276.708 167.99 276.708C168.267 276.708 168.508 276.733 168.712 276.782C168.919 276.828 169.097 276.909 169.248 277.024C169.395 277.136 169.508 277.282 169.586 277.46C169.663 277.639 169.702 277.861 169.702 278.125V280.907ZM169.043 279.897V278.756C168.841 278.768 168.603 278.787 168.328 278.811C168.056 278.835 167.84 278.871 167.681 278.917C167.49 278.974 167.337 279.062 167.219 279.182C167.102 279.299 167.043 279.462 167.043 279.67C167.043 279.905 167.111 280.082 167.247 280.202C167.384 280.319 167.591 280.378 167.871 280.378C168.103 280.378 168.316 280.332 168.508 280.239C168.701 280.143 168.879 280.029 169.043 279.897Z" fill="#2E3A59"/>
<path d="M173.786 279.725C173.786 280.099 173.637 280.406 173.339 280.646C173.043 280.886 172.638 281.006 172.124 281.006C171.833 281.006 171.566 280.97 171.322 280.899C171.08 280.826 170.877 280.746 170.712 280.661V279.886H170.748C170.956 280.05 171.189 280.181 171.445 280.279C171.701 280.374 171.946 280.422 172.181 280.422C172.472 280.422 172.699 280.373 172.864 280.275C173.028 280.177 173.11 280.023 173.11 279.813C173.11 279.651 173.066 279.529 172.976 279.446C172.887 279.363 172.716 279.292 172.462 279.233C172.368 279.211 172.245 279.185 172.093 279.156C171.942 279.127 171.805 279.095 171.681 279.061C171.336 278.965 171.09 278.826 170.945 278.642C170.802 278.456 170.73 278.229 170.73 277.96C170.73 277.791 170.763 277.632 170.829 277.483C170.897 277.333 170.999 277.2 171.135 277.082C171.266 276.967 171.433 276.877 171.635 276.811C171.839 276.742 172.067 276.708 172.318 276.708C172.553 276.708 172.79 276.739 173.029 276.8C173.271 276.859 173.472 276.931 173.631 277.016V277.754H173.596C173.427 277.624 173.222 277.516 172.98 277.427C172.738 277.337 172.501 277.292 172.269 277.292C172.027 277.292 171.823 277.341 171.656 277.438C171.489 277.534 171.406 277.677 171.406 277.868C171.406 278.037 171.456 278.164 171.557 278.25C171.656 278.335 171.816 278.405 172.036 278.459C172.158 278.488 172.295 278.517 172.445 278.547C172.597 278.576 172.724 278.603 172.825 278.628C173.133 278.701 173.37 278.827 173.536 279.006C173.703 279.187 173.786 279.426 173.786 279.725Z" fill="#2E3A59"/>
<path d="M177.547 279.725C177.547 280.099 177.398 280.406 177.1 280.646C176.804 280.886 176.399 281.006 175.885 281.006C175.594 281.006 175.326 280.97 175.082 280.899C174.84 280.826 174.637 280.746 174.473 280.661V279.886H174.508C174.717 280.05 174.95 280.181 175.205 280.279C175.461 280.374 175.707 280.422 175.941 280.422C176.232 280.422 176.46 280.373 176.624 280.275C176.789 280.177 176.871 280.023 176.871 279.813C176.871 279.651 176.826 279.529 176.737 279.446C176.648 279.363 176.477 279.292 176.223 279.233C176.129 279.211 176.006 279.185 175.853 279.156C175.703 279.127 175.566 279.095 175.441 279.061C175.096 278.965 174.851 278.826 174.705 278.642C174.562 278.456 174.491 278.229 174.491 277.96C174.491 277.791 174.523 277.632 174.589 277.483C174.657 277.333 174.759 277.2 174.896 277.082C175.027 276.967 175.194 276.877 175.396 276.811C175.6 276.742 175.827 276.708 176.079 276.708C176.313 276.708 176.551 276.739 176.79 276.8C177.032 276.859 177.232 276.931 177.392 277.016V277.754H177.357C177.188 277.624 176.982 277.516 176.741 277.427C176.499 277.337 176.262 277.292 176.029 277.292C175.788 277.292 175.583 277.341 175.417 277.438C175.25 277.534 175.167 277.677 175.167 277.868C175.167 278.037 175.217 278.164 175.318 278.25C175.417 278.335 175.576 278.405 175.797 278.459C175.919 278.488 176.055 278.517 176.205 278.547C176.358 278.576 176.485 278.603 176.586 278.628C176.893 278.701 177.13 278.827 177.297 279.006C177.464 279.187 177.547 279.426 177.547 279.725Z" fill="#2E3A59"/>
<path d="M185.135 280.51C185.006 280.569 184.889 280.624 184.783 280.675C184.68 280.727 184.544 280.781 184.375 280.837C184.231 280.883 184.075 280.922 183.906 280.954C183.74 280.989 183.555 281.006 183.354 281.006C182.973 281.006 182.627 280.951 182.315 280.841C182.005 280.728 181.735 280.553 181.505 280.316C181.28 280.083 181.103 279.788 180.977 279.431C180.85 279.072 180.787 278.654 180.787 278.18C180.787 277.73 180.848 277.327 180.97 276.972C181.092 276.618 181.268 276.318 181.498 276.073C181.721 275.836 181.99 275.655 182.304 275.53C182.621 275.405 182.972 275.343 183.357 275.343C183.639 275.343 183.919 275.378 184.199 275.449C184.48 275.52 184.793 275.645 185.135 275.824V276.686H185.082C184.794 276.434 184.507 276.251 184.223 276.136C183.939 276.021 183.635 275.963 183.311 275.963C183.046 275.963 182.807 276.008 182.593 276.099C182.382 276.187 182.193 276.325 182.026 276.514C181.864 276.697 181.737 276.93 181.646 277.211C181.557 277.49 181.512 277.813 181.512 278.18C181.512 278.564 181.561 278.894 181.66 279.171C181.761 279.447 181.89 279.672 182.047 279.846C182.211 280.027 182.403 280.162 182.621 280.25C182.842 280.335 183.074 280.378 183.318 280.378C183.654 280.378 183.969 280.318 184.262 280.198C184.555 280.078 184.83 279.899 185.086 279.659H185.135V280.51Z" fill="#2E3A59"/>
<path d="M212.153 280.51C212.024 280.569 211.907 280.624 211.801 280.675C211.698 280.727 211.561 280.781 211.392 280.837C211.249 280.883 211.093 280.922 210.924 280.954C210.757 280.989 210.573 281.006 210.371 281.006C209.991 281.006 209.645 280.951 209.333 280.841C209.023 280.728 208.753 280.553 208.523 280.316C208.297 280.083 208.121 279.788 207.994 279.431C207.868 279.072 207.804 278.654 207.804 278.18C207.804 277.73 207.865 277.327 207.987 276.972C208.11 276.618 208.286 276.318 208.516 276.073C208.739 275.836 209.007 275.655 209.322 275.53C209.639 275.405 209.99 275.343 210.375 275.343C210.657 275.343 210.937 275.378 211.216 275.449C211.498 275.52 211.81 275.645 212.153 275.824V276.686H212.1C211.811 276.434 211.525 276.251 211.241 276.136C210.957 276.021 210.653 275.963 210.329 275.963C210.064 275.963 209.824 276.008 209.611 276.099C209.399 276.187 209.21 276.325 209.044 276.514C208.882 276.697 208.755 276.93 208.664 277.211C208.574 277.49 208.53 277.813 208.53 278.18C208.53 278.564 208.579 278.894 208.678 279.171C208.779 279.447 208.908 279.672 209.065 279.846C209.229 280.027 209.421 280.162 209.639 280.25C209.86 280.335 210.092 280.378 210.336 280.378C210.672 280.378 210.986 280.318 211.28 280.198C211.573 280.078 211.848 279.899 212.104 279.659H212.153V280.51Z" fill="#2E3A59"/>
<path d="M213.755 280.907H213.093V275.196H213.755V280.907Z" fill="#2E3A59"/>
<path d="M218.122 280.907H217.463V280.47C217.404 280.511 217.325 280.57 217.224 280.646C217.125 280.719 217.029 280.778 216.935 280.822C216.825 280.878 216.698 280.925 216.555 280.962C216.411 281.001 216.244 281.02 216.051 281.02C215.697 281.02 215.396 280.898 215.15 280.653C214.903 280.409 214.78 280.097 214.78 279.717C214.78 279.407 214.843 279.156 214.97 278.965C215.099 278.772 215.282 278.62 215.519 278.51C215.759 278.4 216.046 278.325 216.382 278.286C216.718 278.247 217.078 278.218 217.463 278.198V278.092C217.463 277.935 217.436 277.805 217.382 277.703C217.33 277.6 217.255 277.519 217.157 277.46C217.063 277.404 216.95 277.366 216.819 277.347C216.687 277.327 216.55 277.317 216.407 277.317C216.233 277.317 216.039 277.342 215.826 277.391C215.612 277.437 215.391 277.506 215.164 277.596H215.128V276.895C215.258 276.859 215.444 276.818 215.688 276.774C215.932 276.73 216.173 276.708 216.41 276.708C216.687 276.708 216.928 276.733 217.132 276.782C217.339 276.828 217.517 276.909 217.667 277.024C217.815 277.136 217.928 277.282 218.005 277.46C218.083 277.639 218.122 277.861 218.122 278.125V280.907ZM217.463 279.897V278.756C217.261 278.768 217.023 278.787 216.748 278.811C216.476 278.835 216.26 278.871 216.1 278.917C215.91 278.974 215.756 279.062 215.639 279.182C215.522 279.299 215.463 279.462 215.463 279.67C215.463 279.905 215.531 280.082 215.667 280.202C215.803 280.319 216.011 280.378 216.29 280.378C216.523 280.378 216.735 280.332 216.928 280.239C217.12 280.143 217.299 280.029 217.463 279.897Z" fill="#2E3A59"/>
<path d="M222.206 279.725C222.206 280.099 222.057 280.406 221.759 280.646C221.463 280.886 221.058 281.006 220.544 281.006C220.253 281.006 219.985 280.97 219.741 280.899C219.499 280.826 219.296 280.746 219.132 280.661V279.886H219.167C219.376 280.05 219.609 280.181 219.865 280.279C220.12 280.374 220.366 280.422 220.6 280.422C220.892 280.422 221.119 280.373 221.284 280.275C221.448 280.177 221.53 280.023 221.53 279.813C221.53 279.651 221.485 279.529 221.396 279.446C221.307 279.363 221.136 279.292 220.882 279.233C220.788 279.211 220.665 279.185 220.512 279.156C220.362 279.127 220.225 279.095 220.1 279.061C219.755 278.965 219.51 278.826 219.364 278.642C219.221 278.456 219.15 278.229 219.15 277.96C219.15 277.791 219.183 277.632 219.248 277.483C219.316 277.333 219.418 277.2 219.555 277.082C219.686 276.967 219.853 276.877 220.055 276.811C220.259 276.742 220.487 276.708 220.738 276.708C220.973 276.708 221.21 276.739 221.449 276.8C221.691 276.859 221.892 276.931 222.051 277.016V277.754H222.016C221.847 277.624 221.642 277.516 221.4 277.427C221.158 277.337 220.921 277.292 220.688 277.292C220.447 277.292 220.242 277.341 220.076 277.438C219.909 277.534 219.826 277.677 219.826 277.868C219.826 278.037 219.876 278.164 219.977 278.25C220.076 278.335 220.235 278.405 220.456 278.459C220.578 278.488 220.714 278.517 220.865 278.547C221.017 278.576 221.144 278.603 221.245 278.628C221.552 278.701 221.789 278.827 221.956 279.006C222.123 279.187 222.206 279.426 222.206 279.725Z" fill="#2E3A59"/>
<path d="M225.967 279.725C225.967 280.099 225.818 280.406 225.52 280.646C225.224 280.886 224.819 281.006 224.305 281.006C224.014 281.006 223.746 280.97 223.502 280.899C223.26 280.826 223.057 280.746 222.893 280.661V279.886H222.928C223.137 280.05 223.369 280.181 223.625 280.279C223.881 280.374 224.126 280.422 224.361 280.422C224.652 280.422 224.88 280.373 225.044 280.275C225.209 280.177 225.291 280.023 225.291 279.813C225.291 279.651 225.246 279.529 225.157 279.446C225.068 279.363 224.896 279.292 224.643 279.233C224.549 279.211 224.426 279.185 224.273 279.156C224.123 279.127 223.986 279.095 223.861 279.061C223.516 278.965 223.271 278.826 223.125 278.642C222.982 278.456 222.91 278.229 222.91 277.96C222.91 277.791 222.943 277.632 223.009 277.483C223.077 277.333 223.179 277.2 223.315 277.082C223.447 276.967 223.613 276.877 223.815 276.811C224.02 276.742 224.247 276.708 224.498 276.708C224.733 276.708 224.97 276.739 225.21 276.8C225.452 276.859 225.652 276.931 225.812 277.016V277.754H225.777C225.608 277.624 225.402 277.516 225.16 277.427C224.919 277.337 224.682 277.292 224.449 277.292C224.207 277.292 224.003 277.341 223.836 277.438C223.67 277.534 223.586 277.677 223.586 277.868C223.586 278.037 223.637 278.164 223.738 278.25C223.836 278.335 223.996 278.405 224.217 278.459C224.339 278.488 224.475 278.517 224.625 278.547C224.778 278.576 224.905 278.603 225.005 278.628C225.313 278.701 225.55 278.827 225.717 279.006C225.883 279.187 225.967 279.426 225.967 279.725Z" fill="#2E3A59"/>
<path d="M233.935 278.18C233.935 278.676 233.831 279.127 233.622 279.53C233.415 279.934 233.139 280.247 232.794 280.47C232.555 280.624 232.287 280.735 231.992 280.804C231.698 280.872 231.311 280.907 230.83 280.907H229.506V275.442H230.815C231.327 275.442 231.733 275.481 232.034 275.559C232.337 275.635 232.593 275.741 232.801 275.875C233.158 276.107 233.436 276.417 233.636 276.804C233.836 277.19 233.935 277.649 233.935 278.18ZM233.206 278.169C233.206 277.741 233.135 277.38 232.992 277.086C232.848 276.793 232.635 276.561 232.351 276.393C232.144 276.27 231.925 276.186 231.692 276.139C231.46 276.09 231.182 276.066 230.858 276.066H230.203V280.283H230.858C231.193 280.283 231.486 280.257 231.735 280.206C231.986 280.154 232.216 280.059 232.425 279.919C232.685 279.746 232.88 279.517 233.009 279.233C233.141 278.949 233.206 278.594 233.206 278.169Z" fill="#2E3A59"/>
<path d="M261.603 280.51C261.474 280.569 261.357 280.624 261.251 280.675C261.148 280.727 261.011 280.781 260.842 280.837C260.699 280.883 260.543 280.922 260.374 280.954C260.207 280.989 260.023 281.006 259.821 281.006C259.441 281.006 259.095 280.951 258.783 280.841C258.473 280.728 258.203 280.553 257.973 280.316C257.747 280.083 257.571 279.788 257.444 279.431C257.318 279.072 257.254 278.654 257.254 278.18C257.254 277.73 257.315 277.327 257.437 276.972C257.559 276.618 257.736 276.318 257.966 276.073C258.189 275.836 258.457 275.655 258.772 275.53C259.089 275.405 259.44 275.343 259.825 275.343C260.106 275.343 260.387 275.378 260.666 275.449C260.948 275.52 261.26 275.645 261.603 275.824V276.686H261.55C261.261 276.434 260.975 276.251 260.691 276.136C260.407 276.021 260.103 275.963 259.779 275.963C259.514 275.963 259.274 276.008 259.061 276.099C258.849 276.187 258.66 276.325 258.494 276.514C258.332 276.697 258.205 276.93 258.113 277.211C258.024 277.49 257.98 277.813 257.98 278.18C257.98 278.564 258.029 278.894 258.128 279.171C258.229 279.447 258.358 279.672 258.515 279.846C258.679 280.027 258.871 280.162 259.089 280.25C259.31 280.335 259.542 280.378 259.786 280.378C260.122 280.378 260.436 280.318 260.73 280.198C261.023 280.078 261.298 279.899 261.554 279.659H261.603V280.51Z" fill="#2E3A59"/>
<path d="M263.205 280.907H262.543V275.196H263.205V280.907Z" fill="#2E3A59"/>
<path d="M267.571 280.907H266.913V280.47C266.854 280.511 266.775 280.57 266.674 280.646C266.575 280.719 266.479 280.778 266.385 280.822C266.275 280.878 266.148 280.925 266.005 280.962C265.861 281.001 265.694 281.02 265.501 281.02C265.147 281.02 264.846 280.898 264.6 280.653C264.353 280.409 264.23 280.097 264.23 279.717C264.23 279.407 264.293 279.156 264.42 278.965C264.549 278.772 264.732 278.62 264.969 278.51C265.209 278.4 265.496 278.325 265.832 278.286C266.168 278.247 266.528 278.218 266.913 278.198V278.092C266.913 277.935 266.886 277.805 266.832 277.703C266.78 277.6 266.705 277.519 266.607 277.46C266.513 277.404 266.4 277.366 266.269 277.347C266.137 277.327 266 277.317 265.857 277.317C265.683 277.317 265.489 277.342 265.276 277.391C265.062 277.437 264.841 277.506 264.614 277.596H264.578V276.895C264.708 276.859 264.894 276.818 265.138 276.774C265.382 276.73 265.623 276.708 265.86 276.708C266.137 276.708 266.378 276.733 266.582 276.782C266.789 276.828 266.967 276.909 267.117 277.024C267.265 277.136 267.378 277.282 267.455 277.46C267.533 277.639 267.571 277.861 267.571 278.125V280.907ZM266.913 279.897V278.756C266.711 278.768 266.473 278.787 266.198 278.811C265.926 278.835 265.71 278.871 265.55 278.917C265.36 278.974 265.206 279.062 265.089 279.182C264.972 279.299 264.913 279.462 264.913 279.67C264.913 279.905 264.981 280.082 265.117 280.202C265.253 280.319 265.461 280.378 265.74 280.378C265.973 280.378 266.185 280.332 266.378 280.239C266.57 280.143 266.749 280.029 266.913 279.897Z" fill="#2E3A59"/>
<path d="M271.656 279.725C271.656 280.099 271.507 280.406 271.209 280.646C270.913 280.886 270.508 281.006 269.994 281.006C269.703 281.006 269.435 280.97 269.191 280.899C268.949 280.826 268.746 280.746 268.582 280.661V279.886H268.617C268.826 280.05 269.059 280.181 269.314 280.279C269.57 280.374 269.816 280.422 270.05 280.422C270.342 280.422 270.569 280.373 270.734 280.275C270.898 280.177 270.98 280.023 270.98 279.813C270.98 279.651 270.935 279.529 270.846 279.446C270.757 279.363 270.586 279.292 270.332 279.233C270.238 279.211 270.115 279.185 269.962 279.156C269.812 279.127 269.675 279.095 269.55 279.061C269.205 278.965 268.96 278.826 268.814 278.642C268.671 278.456 268.6 278.229 268.6 277.96C268.6 277.791 268.633 277.632 268.698 277.483C268.766 277.333 268.868 277.2 269.005 277.082C269.136 276.967 269.303 276.877 269.505 276.811C269.709 276.742 269.937 276.708 270.188 276.708C270.422 276.708 270.66 276.739 270.899 276.8C271.141 276.859 271.342 276.931 271.501 277.016V277.754H271.466C271.297 277.624 271.092 277.516 270.85 277.427C270.608 277.337 270.371 277.292 270.138 277.292C269.897 277.292 269.692 277.341 269.526 277.438C269.359 277.534 269.276 277.677 269.276 277.868C269.276 278.037 269.326 278.164 269.427 278.25C269.526 278.335 269.685 278.405 269.906 278.459C270.028 278.488 270.164 278.517 270.315 278.547C270.467 278.576 270.594 278.603 270.695 278.628C271.002 278.701 271.239 278.827 271.406 279.006C271.573 279.187 271.656 279.426 271.656 279.725Z" fill="#2E3A59"/>
<path d="M275.417 279.725C275.417 280.099 275.268 280.406 274.97 280.646C274.674 280.886 274.269 281.006 273.755 281.006C273.464 281.006 273.196 280.97 272.952 280.899C272.71 280.826 272.507 280.746 272.343 280.661V279.886H272.378C272.587 280.05 272.819 280.181 273.075 280.279C273.331 280.374 273.576 280.422 273.811 280.422C274.102 280.422 274.33 280.373 274.494 280.275C274.659 280.177 274.741 280.023 274.741 279.813C274.741 279.651 274.696 279.529 274.607 279.446C274.518 279.363 274.346 279.292 274.093 279.233C273.999 279.211 273.876 279.185 273.723 279.156C273.573 279.127 273.435 279.095 273.311 279.061C272.966 278.965 272.721 278.826 272.575 278.642C272.432 278.456 272.36 278.229 272.36 277.96C272.36 277.791 272.393 277.632 272.459 277.483C272.527 277.333 272.629 277.2 272.765 277.082C272.897 276.967 273.063 276.877 273.265 276.811C273.47 276.742 273.697 276.708 273.948 276.708C274.183 276.708 274.42 276.739 274.66 276.8C274.901 276.859 275.102 276.931 275.262 277.016V277.754H275.227C275.058 277.624 274.852 277.516 274.61 277.427C274.369 277.337 274.132 277.292 273.899 277.292C273.657 277.292 273.453 277.341 273.286 277.438C273.12 277.534 273.036 277.677 273.036 277.868C273.036 278.037 273.087 278.164 273.188 278.25C273.286 278.335 273.446 278.405 273.667 278.459C273.789 278.488 273.925 278.517 274.075 278.547C274.228 278.576 274.355 278.603 274.455 278.628C274.763 278.701 275 278.827 275.167 279.006C275.333 279.187 275.417 279.426 275.417 279.725Z" fill="#2E3A59"/>
<path d="M282.41 280.907H278.956V275.442H282.41V276.088H279.653V277.585H282.41V278.231H279.653V280.261H282.41V280.907Z" fill="#2E3A59"/>
</svg>
